<svg width="12" height="16" viewBox="0 0 12 16" fill="none" xmlns="http://www.w3.org/2000/svg">
<path d="M6 8C6.4125 8 6.76563 7.84333 7.05938 7.53C7.35313 7.21667 7.5 6.84 7.5 6.4C7.5 5.96 7.35313 5.58333 7.05938 5.27C6.76563 4.95667 6.4125 4.8 6 4.8C5.5875 4.8 5.23438 4.95667 4.94063 5.27C4.64688 5.58333 4.5 5.96 4.5 6.4C4.5 6.84 4.64688 7.21667 4.94063 7.53C5.23438 7.84333 5.5875 8 6 8ZM6 13.88C7.525 12.3867 8.65625 11.03 9.39375 9.81C10.1313 8.59 10.5 7.50667 10.5 6.56C10.5 5.10667 10.0656 3.91667 9.19688 2.99C8.32812 2.06333 7.2625 1.6 6 1.6C4.7375 1.6 3.67188 2.06333 2.80313 2.99C1.93438 3.91667 1.5 5.10667 1.5 6.56C1.5 7.50667 1.86875 8.59 2.60625 9.81C3.34375 11.03 4.475 12.3867 6 13.88ZM6 16C3.9875 14.1733 2.48438 12.4767 1.49063 10.91C0.496875 9.34333 0 7.89333 0 6.56C0 4.56 0.603125 2.96667 1.80938 1.78C3.01563 0.593333 4.4125 0 6 0C7.5875 0 8.98438 0.593333 10.1906 1.78C11.3969 2.96667 12 4.56 12 6.56C12 7.89333 11.5031 9.34333 10.5094 10.91C9.51562 12.4767 8.0125 14.1733 6 16Z" fill="#1FBABF"/>
</svg>
